<svg xmlns="http://www.w3.org/2000/svg" viewBox="0 0 200 240" role="img" aria-label="BACKEND cartoon illustration"><defs><linearGradient id="g" x1="0" x2="1" y1="0" y2="1"><stop offset="0" stop-color="#a5a2ff"/><stop offset="1" stop-color="#7de1cc"/></linearGradient></defs><rect x="10" y="10" width="180" height="212" rx="38" fill="#fffaf3"/><circle cx="34" cy="35" r="10" fill="url(#g)" opacity=".55"/><circle cx="166" cy="30" r="6" fill="url(#g)" opacity=".6"/><circle cx="173" cy="190" r="12" fill="url(#g)" opacity=".26"/><path d="M42 170V98L59 82V63L80 82V52L101 82L122 52V82L143 63V82L160 98V170Z" fill="#7de1cc"/><rect x="82" y="118" width="36" height="52" rx="10" fill="#f2f1ff"/><circle cx="100" cy="102" r="10" fill="#a5a2ff"/><path d="M25 183h150" stroke="#555b6b" stroke-width="10" stroke-linecap="round"/><g fill="#a5a2ff"><rect x="55" y="111" width="10" height="18" rx="3"/><rect x="135" y="111" width="10" height="18" rx="3"/></g><text x="100" y="220" text-anchor="middle" font-family="Manrope,Arial" font-size="10" font-weight="800" fill="#5e6270" letter-spacing="1.2">BACKEND</text></svg>