<svg xmlns="http://www.w3.org/2000/svg" viewBox="0 0 200 240" role="img" aria-label="ROADMAP cartoon illustration"><defs><linearGradient id="g" x1="0" x2="1" y1="0" y2="1"><stop offset="0" stop-color="#a9df78"/><stop offset="1" stop-color="#7d72ef"/></linearGradient></defs><rect x="10" y="10" width="180" height="212" rx="38" fill="#fffaf3"/><circle cx="34" cy="35" r="10" fill="url(#g)" opacity=".55"/><circle cx="166" cy="30" r="6" fill="url(#g)" opacity=".6"/><circle cx="173" cy="190" r="12" fill="url(#g)" opacity=".26"/><path d="M101 49 Q151 69 151 122 Q151 162 100 176 Q49 162 49 122 Q49 69 101 49Z" fill="#f2efff" stroke="#7d72ef" stroke-width="6"/><circle cx="101" cy="104" r="18" fill="#a9df78"/><path d="M72 146L46 173l33-14M130 146l26 27-33-14" fill="#fff" stroke="#7d72ef" stroke-width="5"/><path d="M87 177 Q101 194 115 177 L101 219Z" fill="#a9df78"/><path d="M101 18v25M90 24l-10 18M112 24l10 18" stroke="#a9df78" stroke-width="5" stroke-linecap="round"/><circle cx="37" cy="73" r="7" fill="#fff"/><circle cx="169" cy="58" r="5" fill="#fff"/><text x="100" y="220" text-anchor="middle" font-family="Manrope,Arial" font-size="10" font-weight="800" fill="#5e6270" letter-spacing="1.2">ROADMAP</text></svg>